<?xml version="1.0" standalone="no"?>
<!DOCTYPE svg PUBLIC "-//W3C//DTD SVG 20010904//EN"
 "http://www.w3.org/TR/2001/REC-SVG-20010904/DTD/svg10.dtd">
<svg version="1.0" xmlns="http://www.w3.org/2000/svg"
 width="400.000000pt" height="400.000000pt" viewBox="0 0 400.000000 400.000000"
 preserveAspectRatio="xMidYMid meet">
<metadata>
Created by potrace 1.14, written by Peter Selinger 2001-2017
</metadata>
<g transform="translate(0.000000,400.000000) scale(0.100000,-0.100000)"
fill="#000000" stroke="none">
<path d="M2343 3225 c-78 -21 -124 -48 -193 -112 -65 -60 -120 -134 -164 -220
-36 -71 -33 -78 8 -18 81 122 229 220 373 250 129 27 232 -12 283 -107 20 -38
35 -52 83 -74 l58 -28 -72 -18 c-187 -46 -233 -131 -249 -453 -16 -319 -55
-478 -151 -615 -72 -103 -122 -139 -408 -300 -212 -120 -327 -236 -423 -429
-44 -88 -59 -108 -95 -131 -50 -32 -161 -75 -170 -67 -3 3 30 70 74 149 44 79
122 219 174 313 117 210 185 285 353 385 228 136 331 232 402 376 67 134 69
262 6 364 -32 53 -96 90 -157 90 -86 -1 -228 -85 -312 -187 -59 -71 -130 -184
-174 -278 -49 -105 -50 -118 -1 -34 123 209 256 329 425 381 54 16 74 18 92
10 52 -24 80 -110 64 -197 -27 -148 -144 -283 -354 -410 -151 -91 -237 -156
-289 -220 l-37 -45 -325 0 -324 0 0 -50 0 -50 290 0 c184 0 290 -4 290 -10 0
-5 -56 -108 -124 -227 -226 -399 -247 -452 -192 -488 23 -15 30 -14 113 11
105 31 219 82 267 119 24 18 50 58 85 128 96 195 188 290 388 405 l109 62 497
0 497 0 0 50 0 50 -410 2 -409 3 47 39 c116 98 193 228 238 402 24 95 33 175
53 476 8 112 14 145 33 184 37 74 73 87 323 119 116 15 211 28 212 29 2 1 -87
46 -196 100 -181 88 -201 101 -225 139 -75 116 -236 171 -383 132z"/>
</g>
</svg>
